<?xml version="1.0" encoding="utf-8"?>
<!-- Generator: Adobe Illustrator 23.0.4, SVG Export Plug-In . SVG Version: 6.00 Build 0)  -->
<svg version="1.1" id="Layer_1" xmlns="http://www.w3.org/2000/svg" xmlns:xlink="http://www.w3.org/1999/xlink" x="0px" y="0px"
	 viewBox="0 0 1728.7 770.4" style="enable-background:new 0 0 1728.7 770.4;" xml:space="preserve">
<style type="text/css">
	.st0{fill:#45E7A0;}
	.st1{fill:#67CDEC;}
	.st2{fill:#C0BFBF;}
	.st3{clip-path:url(#SVGID_2_);}
	.st4{fill:#E5E5E5;}
	.st5{clip-path:url(#SVGID_4_);}
	.st6{fill:#46C5E1;}
	.st7{clip-path:url(#SVGID_6_);}
</style>
<g>
	<path class="st0" d="M1540.5,227.4V75.7H189v149.7c0,2.8-2.3,5.1-5.1,5.1H75.6v311.3H186c1.7,0,3,1.3,3,3v150h1351.6V546.7
		c0-2.7,2.2-4.8,4.8-4.8h107.5V230.4h-109.4C1541.8,230.4,1540.5,229.1,1540.5,227.4z"/>
</g>
<g>
	<g>
		<path class="st1" d="M1653,199.7h-81.6v-124V45h-30.8H189h-30.7v30.7v124H75.6H44.9v30.7v311.4v30.7h30.7h82.7v122.3v30.7H189
			h1351.6h30.8v-30.7V572.5h81.6h30.7v-30.7V230.4v-30.7H1653z M1653.3,385.2h-0.3l0,0H1653.3V540h-0.3v1.8h-107.6
			c-2.7,0-4.8,2.2-4.8,4.8v148.1l0,0H1428l0,0h-112.6h-112.6l0,0h-112.6H977.5l0,0H864.8H752.2l0,0H639.6H526.9l0,0H414.3H301.7l0,0
			H189l0,0V545.6c0-2.1-1.7-3.7-3.7-3.7H75.6V230.4h0.8h107.4c2.9,0,5.3-2.4,5.3-5.3V75.7h112.6l0,0h112.6h112.6l0,0h112.6h112.6
			l0,0h112.6h112.6l0,0h112.6h112.6l0,0l0,0h112.6H1428l0,0h112.6l0,0v149.8c0,2.8,2.3,5,5,5H1653h0.3V385.2z"/>
		<g>
			<rect x="155.5" y="10.1" class="st2" width="6.1" height="34.8"/>
		</g>
		<g>
			<rect x="238.5" y="10.1" class="st2" width="6.1" height="34.8"/>
		</g>
		<g>
			<rect x="386.3" y="10.1" class="st2" width="6.1" height="34.8"/>
		</g>
		<g>
			<rect x="435.2" y="10.1" class="st2" width="6.1" height="34.8"/>
		</g>
		<g>
			<rect x="576.2" y="10.1" class="st2" width="6.1" height="34.8"/>
		</g>
		<g>
			<rect x="720.9" y="10.1" class="st2" width="6.1" height="34.8"/>
		</g>
		<g>
			<rect x="782.7" y="10.1" class="st2" width="6.1" height="34.8"/>
		</g>
		<g>
			<rect x="952.8" y="10.1" class="st2" width="6.1" height="34.8"/>
		</g>
		<g>
			<rect x="1007.2" y="10.1" class="st2" width="6.1" height="34.8"/>
		</g>
		<g>
			<rect x="1142.1" y="10.1" class="st2" width="6.1" height="34.8"/>
		</g>
		<g>
			<rect x="1281.2" y="10.1" class="st2" width="6.1" height="34.8"/>
		</g>
		<g>
			<rect x="1344.3" y="10.1" class="st2" width="6.1" height="34.8"/>
		</g>
		<g>
			<rect x="1481.6" y="10.1" class="st2" width="6.1" height="34.8"/>
		</g>
		<g>
			<rect x="1564.5" y="10.1" class="st2" width="6.1" height="34.8"/>
		</g>
		<g>
			<rect x="155.5" y="725.5" class="st2" width="6.1" height="34.8"/>
		</g>
		<g>
			<rect x="238.5" y="725.5" class="st2" width="6.1" height="34.8"/>
		</g>
		<g>
			<rect x="386.3" y="725.5" class="st2" width="6.1" height="34.8"/>
		</g>
		<g>
			<rect x="435.2" y="725.5" class="st2" width="6.1" height="34.8"/>
		</g>
		<g>
			<rect x="576.2" y="725.5" class="st2" width="6.1" height="34.8"/>
		</g>
		<g>
			<rect x="720.9" y="725.5" class="st2" width="6.1" height="34.8"/>
		</g>
		<g>
			<rect x="782.7" y="725.5" class="st2" width="6.1" height="34.8"/>
		</g>
		<g>
			<rect x="952.8" y="725.5" class="st2" width="6.1" height="34.8"/>
		</g>
		<g>
			<rect x="1007.2" y="725.5" class="st2" width="6.1" height="34.8"/>
		</g>
		<g>
			<rect x="1142.1" y="725.5" class="st2" width="6.1" height="34.8"/>
		</g>
		<g>
			<rect x="1281.2" y="725.5" class="st2" width="6.1" height="34.8"/>
		</g>
		<g>
			<rect x="1344.3" y="725.5" class="st2" width="6.1" height="34.8"/>
		</g>
		<g>
			<rect x="1481.6" y="725.5" class="st2" width="6.1" height="34.8"/>
		</g>
		<g>
			<rect x="1564.5" y="725.5" class="st2" width="6.1" height="34.8"/>
		</g>
		<g>
			<rect x="1578.5" y="77.5" class="st2" width="26.6" height="6.1"/>
		</g>
		<g>
			<rect x="1578.5" y="148" class="st2" width="26.6" height="6.1"/>
		</g>
		<g>
			<rect x="124.1" y="77.5" class="st2" width="27.2" height="6.2"/>
		</g>
		<g>
			<rect x="124.1" y="148" class="st2" width="27.2" height="6.2"/>
		</g>
		<g>
			<rect x="1686.9" y="242" class="st2" width="26.6" height="6.1"/>
		</g>
		<g>
			<rect x="1686.9" y="524.1" class="st2" width="26.6" height="6.1"/>
		</g>
		<g>
			<rect x="1686.9" y="426.7" class="st2" width="26.6" height="6.1"/>
		</g>
		<g>
			<rect x="1686.9" y="334.4" class="st2" width="26.6" height="6.1"/>
		</g>
		<g>
			<rect x="13.1" y="242" class="st2" width="26.6" height="6.1"/>
		</g>
		<g>
			<rect x="13.1" y="524.1" class="st2" width="26.6" height="6.1"/>
		</g>
		<g>
			<rect x="13.1" y="426.7" class="st2" width="26.6" height="6.1"/>
		</g>
		<g>
			<rect x="13.1" y="334.4" class="st2" width="26.6" height="6.1"/>
		</g>
		<g>
			<rect x="1614" y="168.9" class="st2" width="6.1" height="26.6"/>
		</g>
		<g>
			<rect x="1675.8" y="168.9" class="st2" width="6.1" height="26.6"/>
		</g>
		<g>
			<rect x="45.6" y="168.9" class="st2" width="6.1" height="26.6"/>
		</g>
		<g>
			<rect x="107.5" y="168.9" class="st2" width="6.1" height="26.6"/>
		</g>
		<g>
			<rect x="45.6" y="577.1" class="st2" width="6.1" height="26.6"/>
		</g>
		<g>
			<rect x="107.5" y="577.1" class="st2" width="6.1" height="26.6"/>
		</g>
		<g>
			<rect x="1613.8" y="576.8" class="st2" width="6.1" height="26.6"/>
		</g>
		<g>
			<rect x="1675.7" y="576.8" class="st2" width="6.1" height="26.6"/>
		</g>
		<g>
			<g>
				<g>
					<path class="st2" d="M1540.6,700.8H189c-3.3,0-6-2.7-6-6v-147H75.6c-3.3,0-6-2.7-6-6V230.4c0-3.3,2.7-6,6-6H183V75.7
						c0-3.3,2.7-6,6-6h1351.6c3.3,0,6,2.7,6,6v148.7H1653c3.3,0,6,2.7,6,6v311.4c0,3.3-2.7,6-6,6h-106.4v147
						C1546.6,698.1,1544,700.8,1540.6,700.8z M75.6,230.4v311.4H186c1.7,0,3,1.3,3,3v150h1351.6V546.7c0-2.7,2.2-4.8,4.8-4.8h107.5
						V230.4h-109.4c-1.7,0-3-1.3-3-3V75.7H189v149.7c0,2.8-2.3,5.1-5.1,5.1H75.6V230.4z"/>
				</g>
			</g>
			<g>
				<g>
					<g>
						<g>
							<g>
								<defs>
									<path id="SVGID_1_" d="M1540.6,700.8H189c-3.3,0-6-2.7-6-6v-147H75.6c-3.3,0-6-2.7-6-6V230.4c0-3.3,2.7-6,6-6H183V75.7
										c0-3.3,2.7-6,6-6h1351.6c3.3,0,6,2.7,6,6v148.7H1653c3.3,0,6,2.7,6,6v311.4c0,3.3-2.7,6-6,6h-106.4v147
										C1546.6,698.1,1544,700.8,1540.6,700.8z M75.6,230.4v311.4H186c1.7,0,3,1.3,3,3v150h1351.6V546.7c0-2.7,2.2-4.8,4.8-4.8
										h107.5V230.4h-109.4c-1.7,0-3-1.3-3-3V75.7H189v149.7c0,2.8-2.3,5.1-5.1,5.1H75.6V230.4z"/>
								</defs>
								<clipPath id="SVGID_2_">
									<use xlink:href="#SVGID_1_"  style="overflow:visible;"/>
								</clipPath>
								<g class="st3">
									<g>
										<path class="st4" d="M1544.6,704.8H193c-3.3,0-6-2.7-6-6V552.1c0-2.4-1.9-4.3-4.3-4.3l-103.2,4c-3.3,0-6-2.7-6-6V230.7
											c0-1.3,1-2.3,2.3-2.3h107.1c2.2,0,4-1.8,4-4V76.9c0-1.8,1.4-3.2,3.2-3.2h1354.4c3.3,0,6,2.7,6,6l-3.9,144.5
											c0,2.3,1.9,4.2,4.2,4.2h106c3.3,0,6,2.7,6,6v311.4c0,3.3-2.7,6-6,6h-106.4v147C1550.6,702.1,1548,704.8,1544.6,704.8z
											 M79.6,234.4l-4,307.2c0,2.3,1.9,4.2,4.2,4.2h110.3c1.7,0,3,1.3,3,3L189,694.6c0,2.3,1.9,4.2,4.2,4.2h1347.6
											c2.2,0,4-1.8,4-4V547.9c0-1.2,0.9-2.1,2.1-2.1h106c2.3,0,4.2-1.9,4.2-4.2V238.9c0-2.4-2-4.4-4.4-4.4h-105
											c-1.7,0-3-1.3-3-3V79.8c0-2.3-1.8-4.1-4.1-4.1L193,79.7v149.7c0,2.8-2.3,5.1-5.1,5.1H79.6V234.4z"/>
									</g>
								</g>
							</g>
						</g>
					</g>
				</g>
			</g>
		</g>
		<g>
			<path class="st2" d="M1571.4,733.5H158.3c-4.4,0-8-3.6-8-8v-145H44.9c-4.4,0-8-3.6-8-8V199.7c0-4.4,3.6-8,8-8h105.4V45
				c0-4.4,3.6-8,8-8h1413.1c4.4,0,8,3.6,8,8v146.8h104.4c4.4,0,8,3.6,8,8v372.8c0,4.4-3.6,8-8,8h-104.4v145
				C1579.4,729.9,1575.8,733.5,1571.4,733.5z M44.9,199.7v372.8h113.4v153h1413.1v-153h112.4V199.7h-112.4V45H158.3v154.8H44.9
				V199.7z"/>
		</g>
		<g>
			<g>
				<g>
					<g>
						<g>
							<defs>
								<path id="SVGID_3_" d="M1571.4,733.5H158.3c-4.4,0-8-3.6-8-8v-145H44.9c-4.4,0-8-3.6-8-8V199.7c0-4.4,3.6-8,8-8h105.4V45
									c0-4.4,3.6-8,8-8h1413.1c4.4,0,8,3.6,8,8v146.8h104.4c4.4,0,8,3.6,8,8v372.8c0,4.4-3.6,8-8,8h-104.4v145
									C1579.4,729.9,1575.8,733.5,1571.4,733.5z M44.9,199.7v372.8h113.4v153h1413.1v-153h112.4V199.7h-112.4V45H158.3v154.8H44.9
									V199.7z"/>
							</defs>
							<clipPath id="SVGID_4_">
								<use xlink:href="#SVGID_3_"  style="overflow:visible;"/>
							</clipPath>
							<g class="st5">
								<path class="st4" d="M1576.4,738.5H163.3c-4.4,0-8-3.6-8-8V585.6c0-2.8-2.3-5.1-5.1-5.1l-100.4,5c-4.4,0-8-3.6-8-8V199.9
									c0-1.7,1.4-3.1,3.1-3.1h110.4V45.3c0-1.9,1.5-3.4,3.4-3.4h1417.7c4.4,0,8,3.6,8,8l-5,142.1c0,2.6,2.1,4.7,4.7,4.7h104.7
									c4.4,0,8,3.6,8,8v372.8c0,4.4-3.6,8-8,8h-104.4v145C1584.4,734.9,1580.8,738.5,1576.4,738.5z M49.9,204.7l-5,367.8
									c0,2.8,2.2,5,5,5h113.4l-5,148.1c0,2.7,2.2,4.9,4.9,4.9h1408.1c2.8,0,5.1-2.3,5.1-5.1V577.5h107.3c2.8,0,5.1-2.3,5.1-5.1
									V204.9c0-2.9-2.3-5.2-5.2-5.2l-107.2,5V50.1c0-2.8-2.3-5.1-5.1-5.1L163.4,50v154.8H49.9V204.7z"/>
							</g>
						</g>
					</g>
				</g>
			</g>
		</g>
		<g>
			<g>
				<path class="st1" d="M1606.2,764.4H123.5c-2.3,0-4.1-1.8-4.1-4.1V616.5c0-2.8-2.3-5.1-5.1-5.1H10.1c-2.3,0-4.1-1.8-4.1-4.1
					V164.9c0-2.3,1.8-4.1,4.1-4.1h109.3V10.1c0-2.3,1.8-4.1,4.1-4.1h1482.7c2.3,0,4.1,1.8,4.1,4.1v145.2c0,3,2.5,5.5,5.5,5.5h102.8
					c2.3,0,4.1,1.8,4.1,4.1v442.4c0,2.3-1.8,4.1-4.1,4.1H1614c-2,0-3.6,1.6-3.6,3.6v145.2C1610.3,762.5,1608.4,764.4,1606.2,764.4z
					 M131,756.2h1471V607.3c0-2.3,1.8-4.1,4.1-4.1h108.3V173.9c0-2.7-2.2-4.9-4.9-4.9h-103.4c-2.3,0-4.1-1.8-4.1-4.1V18.6
					c0-2.4-1.9-4.4-4.4-4.4h-1466c-2.2,0-4,1.8-4,4v146.6c0,2.3-1.8,4.1-4.1,4.1H19.9c-3.2,0-5.7,2.6-5.7,5.7v423.5c0,2.8,2.3,5,5,5
					h104.3c2.3,0,4.1,1.8,4.1,4.1v145.4C127.6,754.7,129.1,756.2,131,756.2z"/>
			</g>
		</g>
		<g>
			<polygon class="st6" points="1659,205.7 1683.7,205.7 1683.7,199.7 1653,199.7 1571.4,199.7 1576.4,205.7 			"/>
		</g>
		<g>
			<polygon class="st6" points="50.9,236.4 50.9,205.7 81.6,205.7 164.3,205.7 164.3,81.7 164.3,51 195,51 1546.6,51 1571.4,51 
				1571.4,45 1540.6,45 189,45 158.3,45 158.3,75.7 158.3,199.7 75.6,199.7 44.9,199.7 44.9,230.4 44.9,541.8 44.9,572.5 
				50.9,572.5 50.9,547.8 			"/>
		</g>
		<g>
			<path class="st6" d="M1722.6,166.8v-1.9c0-2.3-1.8-4.1-4.1-4.1l-108.3-5.5l1.1,5.6c0.5,2.4,2,4.5,4.3,5.4
				c0.8,0.3,1.7,0.5,2.6,0.5H1722.6z"/>
		</g>
		<g>
			<path class="st6" d="M16.1,166.8h105.6c2,0,3.7-1.7,3.7-3.7v-147c0-2.3,1.8-4.1,4.1-4.1h1480.8v-1.9c0-2.3-1.8-4.1-4.1-4.1H123.5
				c-2.3,0-4.1,1.8-4.1,4.1v145.7c0,2.8-2.2,5-5,5H10.1c-2.3,0-4.1,1.8-4.1,4.1v442.4c0,2.3,1.8,4.1,4.1,4.1H12V170.9
				C12,168.7,13.8,166.8,16.1,166.8z"/>
		</g>
		<g>
			<path class="st6" d="M123.5,603.2l-109.3-5v4.3c0,3.7,3,6.7,6.7,6.7h106.7v-1.9C127.6,605.1,125.8,603.2,123.5,603.2z"/>
		</g>
		<g>
			<path class="st6" d="M1608.1,758.3v-145c0-2.3,1.8-4.1,4.1-4.1h103c2.9,0,5.2-2.3,5.2-5.2V175c0-6-10.9-6-10.9-6l4.9,6v423.1
				c0,2.8-2.3,5.1-5.1,5.1h-103.1c-2.3,0-4.1,1.8-4.1,4.1v145.1c0,2.1-1.7,3.7-3.7,3.7l-1470.8-2.9v2.9c0,3.3,2.7,6,6,6h1470.6
				C1606.3,762.2,1608.1,760.5,1608.1,758.3z"/>
		</g>
		<g>
			<path class="st2" d="M1606.2,770.4H123.5c-5.6,0-10.1-4.5-10.1-10.1V617.4H10.1c-5.6,0-10.1-4.5-10.1-10.1V164.9
				c0-5.6,4.5-10.1,10.1-10.1h103.3V10.1c0-5.6,4.5-10.1,10.1-10.1h1482.7c5.6,0,10.1,4.5,10.1,10.1v144.7h102.3
				c5.6,0,10.1,4.5,10.1,10.1v442.4c0,5.6-4.5,10.1-10.1,10.1h-102.3v142.9C1616.3,765.9,1611.7,770.4,1606.2,770.4z M10.1,160.8
				c-2.3,0-4.1,1.8-4.1,4.1v442.4c0,2.3,1.8,4.1,4.1,4.1h104.4c2.7,0,4.9,2.2,4.9,4.9v143.9c0,2.3,1.8,4.1,4.1,4.1h1482.7
				c2.3,0,4.1-1.8,4.1-4.1V614.4c0-1.7,1.3-3,3-3h105.3c2.3,0,4.1-1.8,4.1-4.1V164.9c0-2.3-1.8-4.1-4.1-4.1H1616
				c-3.1,0-5.7-2.5-5.7-5.7v-145c0-2.3-1.8-4.1-4.1-4.1H123.5c-2.3,0-4.1,1.8-4.1,4.1v147.7c0,1.7-1.3,3-3,3L10.1,160.8L10.1,160.8z
				 M1599.1,756.2H130.6c-1.7,0-3-1.3-3-3V607.3c0-2.3-1.8-4.1-4.1-4.1H18.8c-2.6,0-4.6-2.1-4.6-4.6V172c0-1.7,1.3-3,3-3h106.3
				c2.3,0,4.1-1.8,4.1-4.1V17.2c0-1.7,1.3-3,3-3h1468.5c1.7,0,3,1.3,3,3v147.7c0,2.3,1.8,4.1,4.1,4.1h103.4c2.7,0,4.9,2.2,4.9,4.9
				v426.4c0,1.7-1.3,3-3,3h-105.3c-2.3,0-4.1,1.8-4.1,4.1v145.9C1602.1,754.9,1600.7,756.2,1599.1,756.2z M133.6,750.2h1462.5V607.3
				c0-5.6,4.5-10.1,10.1-10.1h102.3V175h-102.3c-5.6,0-10.1-4.5-10.1-10.1V20.2H133.6v144.7c0,5.6-4.5,10.1-10.1,10.1H20.2v422.2
				h103.3c5.6,0,10.1,4.5,10.1,10.1V750.2L133.6,750.2z"/>
			<g>
				<g>
					<g>
						<g>
							<g>
								<defs>
									<path id="SVGID_5_" d="M1606.2,770.4H123.5c-5.6,0-10.1-4.5-10.1-10.1V617.4H10.1c-5.6,0-10.1-4.5-10.1-10.1V164.9
										c0-5.6,4.5-10.1,10.1-10.1h103.3V10.1c0-5.6,4.5-10.1,10.1-10.1h1482.7c5.6,0,10.1,4.5,10.1,10.1v144.7h102.3
										c5.6,0,10.1,4.5,10.1,10.1v442.4c0,5.6-4.5,10.1-10.1,10.1h-102.3v142.9C1616.3,765.9,1611.7,770.4,1606.2,770.4z
										 M10.1,160.8c-2.3,0-4.1,1.8-4.1,4.1v442.4c0,2.3,1.8,4.1,4.1,4.1h104.4c2.7,0,4.9,2.2,4.9,4.9v143.9
										c0,2.3,1.8,4.1,4.1,4.1h1482.7c2.3,0,4.1-1.8,4.1-4.1V614.4c0-1.7,1.3-3,3-3h105.3c2.3,0,4.1-1.8,4.1-4.1V164.9
										c0-2.3-1.8-4.1-4.1-4.1H1616c-3.1,0-5.7-2.5-5.7-5.7v-145c0-2.3-1.8-4.1-4.1-4.1H123.5c-2.3,0-4.1,1.8-4.1,4.1v147.7
										c0,1.7-1.3,3-3,3L10.1,160.8L10.1,160.8z M1599.1,756.2H130.6c-1.7,0-3-1.3-3-3V607.3c0-2.3-1.8-4.1-4.1-4.1H18.8
										c-2.6,0-4.6-2.1-4.6-4.6V172c0-1.7,1.3-3,3-3h106.3c2.3,0,4.1-1.8,4.1-4.1V17.2c0-1.7,1.3-3,3-3h1468.5c1.7,0,3,1.3,3,3
										v147.7c0,2.3,1.8,4.1,4.1,4.1h103.4c2.7,0,4.9,2.2,4.9,4.9v426.4c0,1.7-1.3,3-3,3h-105.3c-2.3,0-4.1,1.8-4.1,4.1v145.9
										C1602.1,754.9,1600.7,756.2,1599.1,756.2z M133.6,750.2h1462.5V607.3c0-5.6,4.5-10.1,10.1-10.1h102.3V175h-102.3
										c-5.6,0-10.1-4.5-10.1-10.1V20.2H133.6v144.7c0,5.6-4.5,10.1-10.1,10.1H20.2v422.2h103.3c5.6,0,10.1,4.5,10.1,10.1V750.2
										L133.6,750.2z"/>
								</defs>
								<clipPath id="SVGID_6_">
									<use xlink:href="#SVGID_5_"  style="overflow:visible;"/>
								</clipPath>
								<g class="st7">
									<path class="st4" d="M1610.2,774.4H127.5c-5.6,0-10.1-4.5-10.1-10.1V621.4c0-2.2-1.8-4-4-4l-99.3,4
										c-5.6,0-10.1-4.5-10.1-10.1V164.1c0-2.9,2.3-5.2,5.2-5.2h104c2.3,0,4.2-1.9,4.2-4.2V9.2c0-2.8,2.3-5.2,5.2-5.2h1487.6
										c5.6,0,10.1,4.5,10.1,10.1l-4,140.5c0,2.3,1.9,4.2,4.2,4.2h102.1c5.6,0,10.1,4.5,10.1,10.1v442.4c0,5.6-4.5,10.1-10.1,10.1
										h-102.3v142.9C1620.3,769.9,1615.7,774.4,1610.2,774.4z M10.1,164.8c-2.3,0-4.1,1.8-4.1,4.1v442.4c0,2.3,1.8,4.1,4.1,4.1
										h104.4c2.7,0,4.9,2.2,4.9,4.9v143.9c0,2.3,1.8,4.1,4.1,4.1h1482c4.9,0,8.8-3.9,8.8-8.8V617.3c0-1,0.8-1.9,1.9-1.9h102.6
										c4.3,0,7.9-3.5,7.9-7.9V165.2c0-2.3-1.8-4.1-4.1-4.1l-102.6-0.2c-3.1,0-5.7-2.5-5.7-5.7v-145c0-2.3-1.8-4.1-4.1-4.1
										L127.5,10c-2.3,0-4.1,1.8-4.1,4.1v147.7c0,1.7-1.3,3-3,3H10.1z M1603.1,760.2H134.6c-1.7,0-3-1.3-3-3V607.3
										c0-2.3-1.8-4.1-4.1-4.1l-104.7,0.2c-2.6,0-4.6-2.1-4.6-4.6V176c0-1.7,1.3-3,3-3h101.5c4.9,0,8.9-4,8.9-8.9V21.2
										c0-1.7,1.3-3,3-3h1468.5c1.7,0-1,1.3-1,3v147.7c0,2.3,1.8,4.1,4.1,4.1h107.4c2.7,0,4.9,2.2,4.9,4.9v426.4c0,1.7-1.3,3-3,3
										h-105.3c-2.3,0-4.1,1.8-4.1,4.1v145.9C1606.1,758.9,1604.7,760.2,1603.1,760.2z M137.5,754.2h1462.6V606.7
										c0-3,2.4-5.5,5.5-5.5h103.7c1.8,0,3.2-1.4,3.2-3.2V179.2c0-2.3-1.9-4.2-4.2-4.2l-98.1,4c-5.6,0-10.1-4.5-10.1-10.1V24.3
										c0-2.3-1.8-4.1-4.1-4.1l-1458.4,4v144.7c0,5.6-4.5,10.1-10.1,10.1H24.2l-4,418.2c0,2.2,1.8,4,4,4h103.3
										c5.6,0,10.1,4.5,10.1,10.1l-4,138.9C133.6,752.4,135.3,754.2,137.5,754.2z"/>
								</g>
							</g>
						</g>
					</g>
				</g>
			</g>
		</g>
	</g>
</g>
</svg>
