<?xml version="1.0" encoding="UTF-8"?>
<svg width="1718px" height="759px" viewBox="0 0 1718 759" version="1.1" xmlns="http://www.w3.org/2000/svg" xmlns:xlink="http://www.w3.org/1999/xlink">
    <!-- Generator: Sketch 52.6 (67491) - http://www.bohemiancoding.com/sketch -->
    <title>background</title>
    <desc>Created with Sketch.</desc>
    <defs>
        <path d="M1471.3,631.4 L119.7,631.4 C116.4,631.4 113.7,628.7 113.7,625.4 L113.7,478.4 L6.3,478.4 C3,478.4 0.3,475.7 0.3,472.4 L0.3,161 C0.3,157.7 3,155 6.3,155 L113.7,155 L113.7,6.3 C113.7,3 116.4,0.3 119.7,0.3 L1471.3,0.3 C1474.6,0.3 1477.3,3 1477.3,6.3 L1477.3,155 L1583.7,155 C1587,155 1589.7,157.7 1589.7,161 L1589.7,472.4 C1589.7,475.7 1587,478.4 1583.7,478.4 L1477.3,478.4 L1477.3,625.4 C1477.3,628.7 1474.7,631.4 1471.3,631.4 Z M6.3,161 L6.3,472.4 L116.7,472.4 C118.4,472.4 119.7,473.7 119.7,475.4 L119.7,625.4 L1471.3,625.4 L1471.3,477.3 C1471.3,474.6 1473.5,472.5 1476.1,472.5 L1583.6,472.5 L1583.6,161 L1474.2,161 C1472.5,161 1471.2,159.7 1471.2,158 L1471.2,6.3 L119.7,6.3 L119.7,156 C119.7,158.8 117.4,161.1 114.6,161.1 L6.3,161.1 L6.3,161 Z" id="path-1"></path>
        <path d="M1535.1,697.1 L122,697.1 C117.6,697.1 114,693.5 114,689.1 L114,544.1 L8.6,544.1 C4.2,544.1 0.6,540.5 0.6,536.1 L0.6,163.3 C0.6,158.9 4.2,155.3 8.6,155.3 L114,155.3 L114,8.6 C114,4.2 117.6,0.6 122,0.6 L1535.1,0.6 C1539.5,0.6 1543.1,4.2 1543.1,8.6 L1543.1,155.4 L1647.5,155.4 C1651.9,155.4 1655.5,159 1655.5,163.4 L1655.5,536.2 C1655.5,540.6 1651.9,544.2 1647.5,544.2 L1543.1,544.2 L1543.1,689.2 C1543.1,693.5 1539.5,697.1 1535.1,697.1 Z M8.6,163.3 L8.6,536.1 L122,536.1 L122,689.1 L1535.1,689.1 L1535.1,536.1 L1647.5,536.1 L1647.5,163.3 L1535.1,163.3 L1535.1,8.6 L122,8.6 L122,163.4 L8.6,163.4 L8.6,163.3 Z" id="path-3"></path>
    </defs>
    <g id="background" stroke="none" stroke-width="1" fill="none" fill-rule="evenodd">
        <g>
            <path d="M1535.34,70.27 L183.72,70.27 L183.72,219.77 C183.72,222.68 181.36,225.04 178.45,225.04 L70.29,225.04 L70.29,536.41 L179.98,536.41 C182.04,536.41 183.72,538.08 183.72,540.15 L183.72,689.36 L1535.35,689.36 L1535.35,541.23 C1535.35,538.57 1537.5,536.42 1540.16,536.42 L1647.72,536.42 L1647.72,225.04 L1535.35,225.04 L1535.35,70.27 L1535.34,70.27 Z" id="Path" fill="#45E7A0"></path>
            <rect id="Rectangle" fill="#C0BFBF" x="150.2" y="4.7" width="6.1" height="34.8"></rect>
            <rect id="Rectangle" fill="#C0BFBF" x="233.2" y="4.7" width="6.1" height="34.8"></rect>
            <rect id="Rectangle" fill="#C0BFBF" x="381" y="4.7" width="6.1" height="34.8"></rect>
            <rect id="Rectangle" fill="#C0BFBF" x="429.9" y="4.7" width="6.1" height="34.8"></rect>
            <rect id="Rectangle" fill="#C0BFBF" x="570.9" y="4.7" width="6.1" height="34.8"></rect>
            <rect id="Rectangle" fill="#C0BFBF" x="715.6" y="4.7" width="6.1" height="34.8"></rect>
            <rect id="Rectangle" fill="#C0BFBF" x="777.4" y="4.7" width="6.1" height="34.8"></rect>
            <rect id="Rectangle" fill="#C0BFBF" x="947.5" y="4.7" width="6.1" height="34.8"></rect>
            <rect id="Rectangle" fill="#C0BFBF" x="1001.9" y="4.7" width="6.1" height="34.8"></rect>
            <rect id="Rectangle" fill="#C0BFBF" x="1136.8" y="4.7" width="6.1" height="34.8"></rect>
            <rect id="Rectangle" fill="#C0BFBF" x="1275.9" y="4.7" width="6.1" height="34.8"></rect>
            <rect id="Rectangle" fill="#C0BFBF" x="1339" y="4.7" width="6.1" height="34.8"></rect>
            <rect id="Rectangle" fill="#C0BFBF" x="1476.3" y="4.7" width="6.1" height="34.8"></rect>
            <rect id="Rectangle" fill="#C0BFBF" x="1559.2" y="4.7" width="6.1" height="34.8"></rect>
            <rect id="Rectangle" fill="#C0BFBF" x="150.2" y="720.1" width="6.1" height="34.8"></rect>
            <rect id="Rectangle" fill="#C0BFBF" x="233.2" y="720.1" width="6.1" height="34.8"></rect>
            <rect id="Rectangle" fill="#C0BFBF" x="381" y="720.1" width="6.1" height="34.8"></rect>
            <rect id="Rectangle" fill="#C0BFBF" x="429.9" y="720.1" width="6.1" height="34.8"></rect>
            <rect id="Rectangle" fill="#C0BFBF" x="570.9" y="720.1" width="6.1" height="34.8"></rect>
            <rect id="Rectangle" fill="#C0BFBF" x="715.6" y="720.1" width="6.1" height="34.8"></rect>
            <rect id="Rectangle" fill="#C0BFBF" x="777.4" y="720.1" width="6.1" height="34.8"></rect>
            <rect id="Rectangle" fill="#C0BFBF" x="947.5" y="720.1" width="6.1" height="34.8"></rect>
            <rect id="Rectangle" fill="#C0BFBF" x="1001.9" y="720.1" width="6.1" height="34.8"></rect>
            <rect id="Rectangle" fill="#C0BFBF" x="1136.8" y="720.1" width="6.1" height="34.8"></rect>
            <rect id="Rectangle" fill="#C0BFBF" x="1275.9" y="720.1" width="6.1" height="34.8"></rect>
            <rect id="Rectangle" fill="#C0BFBF" x="1339" y="720.1" width="6.1" height="34.8"></rect>
            <rect id="Rectangle" fill="#C0BFBF" x="1476.3" y="720.1" width="6.1" height="34.8"></rect>
            <rect id="Rectangle" fill="#C0BFBF" x="1559.2" y="720.1" width="6.1" height="34.8"></rect>
            <polygon id="Path" fill="#67CDEC" points="1566.1 194.3 1566.1 70.3 1566.1 39.6 1535.3 39.6 183.7 39.6 153 39.6 153 70.3 153 194.3 70.3 194.3 39.6 194.3 39.6 225 39.6 536.4 39.6 567.1 70.3 567.1 153 567.1 153 689.4 153 720.1 183.7 720.1 1535.3 720.1 1566.1 720.1 1566.1 689.4 1566.1 567.1 1647.7 567.1 1678.4 567.1 1678.4 536.4 1678.4 225 1678.4 194.3 1647.7 194.3"></polygon>
            <rect id="Rectangle" fill="#C0BFBF" x="1573.2" y="72.1" width="26.6" height="6.1"></rect>
            <rect id="Rectangle" fill="#C0BFBF" x="1573.2" y="142.6" width="26.6" height="6.1"></rect>
            <rect id="Rectangle" fill="#C0BFBF" x="118.8" y="72.1" width="27.2" height="6.2"></rect>
            <rect id="Rectangle" fill="#C0BFBF" x="118.8" y="142.6" width="27.2" height="6.2"></rect>
            <rect id="Rectangle" fill="#C0BFBF" x="1681.6" y="236.6" width="26.6" height="6.1"></rect>
            <rect id="Rectangle" fill="#C0BFBF" x="1681.6" y="518.7" width="26.6" height="6.1"></rect>
            <rect id="Rectangle" fill="#C0BFBF" x="1681.6" y="421.3" width="26.6" height="6.1"></rect>
            <rect id="Rectangle" fill="#C0BFBF" x="1681.6" y="329" width="26.6" height="6.1"></rect>
            <rect id="Rectangle" fill="#C0BFBF" x="7.8" y="236.6" width="26.6" height="6.1"></rect>
            <rect id="Rectangle" fill="#C0BFBF" x="7.8" y="518.7" width="26.6" height="6.1"></rect>
            <rect id="Rectangle" fill="#C0BFBF" x="7.8" y="421.3" width="26.6" height="6.1"></rect>
            <rect id="Rectangle" fill="#C0BFBF" x="7.8" y="329" width="26.6" height="6.1"></rect>
            <rect id="Rectangle" fill="#C0BFBF" x="1608.7" y="163.5" width="6.1" height="26.6"></rect>
            <rect id="Rectangle" fill="#C0BFBF" x="1670.5" y="163.5" width="6.1" height="26.6"></rect>
            <rect id="Rectangle" fill="#C0BFBF" x="40.3" y="163.5" width="6.1" height="26.6"></rect>
            <rect id="Rectangle" fill="#C0BFBF" x="102.2" y="163.5" width="6.1" height="26.6"></rect>
            <rect id="Rectangle" fill="#C0BFBF" x="40.3" y="571.7" width="6.1" height="26.6"></rect>
            <rect id="Rectangle" fill="#C0BFBF" x="102.2" y="571.7" width="6.1" height="26.6"></rect>
            <rect id="Rectangle" fill="#C0BFBF" x="1608.5" y="571.4" width="6.1" height="26.6"></rect>
            <rect id="Rectangle" fill="#C0BFBF" x="1670.4" y="571.4" width="6.1" height="26.6"></rect>
            <path d="M1535.3,695.4 L183.7,695.4 C180.4,695.4 177.7,692.7 177.7,689.4 L177.7,542.4 L70.3,542.4 C67,542.4 64.3,539.7 64.3,536.4 L64.3,225 C64.3,221.7 67,219 70.3,219 L177.7,219 L177.7,70.3 C177.7,67 180.4,64.3 183.7,64.3 L1535.3,64.3 C1538.6,64.3 1541.3,67 1541.3,70.3 L1541.3,219 L1647.7,219 C1651,219 1653.7,221.7 1653.7,225 L1653.7,536.4 C1653.7,539.7 1651,542.4 1647.7,542.4 L1541.3,542.4 L1541.3,689.4 C1541.3,692.7 1538.7,695.4 1535.3,695.4 Z M70.3,225 L70.3,536.4 L180.7,536.4 C182.4,536.4 183.7,537.7 183.7,539.4 L183.7,689.4 L1535.3,689.4 L1535.3,541.3 C1535.3,538.6 1537.5,536.5 1540.1,536.5 L1647.6,536.5 L1647.6,225 L1538.2,225 C1536.5,225 1535.2,223.7 1535.2,222 L1535.2,70.3 L183.7,70.3 L183.7,220 C183.7,222.8 181.4,225.1 178.6,225.1 L70.3,225.1 L70.3,225 Z" id="Shape" fill="#C0BFBF" fill-rule="nonzero"></path>
            <g id="Clipped" transform="translate(64.000000, 64.000000)">
                <mask id="mask-2" fill="white">
                    <use xlink:href="#path-1"></use>
                </mask>
                <g id="SVGID_1_"></g>
                <path d="M1475.3,635.4 L123.7,635.4 C120.4,635.4 117.7,632.7 117.7,629.4 L117.7,482.7 C117.7,480.3 115.8,478.4 113.4,478.4 L10.2,482.4 C6.9,482.4 4.2,479.7 4.2,476.4 L4.2,161.3 C4.2,160 5.2,159 6.5,159 L113.6,159 C115.8,159 117.6,157.2 117.6,155 L117.6,7.5 C117.6,5.7 119,4.3 120.8,4.3 L1475.2,4.3 C1478.5,4.3 1481.2,7 1481.2,10.3 L1481.2,154.8 C1481.2,157.1 1483.1,159 1485.4,159 L1587.5,159 C1590.8,159 1593.5,161.7 1593.5,165 L1593.5,476.4 C1593.5,479.7 1590.8,482.4 1587.5,482.4 L1481.1,482.4 L1481.1,629.4 C1481.3,632.7 1478.7,635.4 1475.3,635.4 Z M10.3,165 L10.3,472.2 C10.3,474.5 12.2,476.4 14.5,476.4 L120.8,476.4 C122.5,476.4 123.8,477.7 123.8,479.4 L123.8,625.2 C123.8,627.5 125.7,629.4 128,629.4 L1471.5,629.4 C1473.7,629.4 1475.5,627.6 1475.5,625.4 L1475.5,478.5 C1475.5,477.3 1476.4,476.4 1477.6,476.4 L1583.6,476.4 C1585.9,476.4 1587.8,474.5 1587.8,472.2 L1587.8,169.5 C1587.8,167.1 1585.8,165.1 1583.4,165.1 L1478.4,165.1 C1476.7,165.1 1475.4,163.8 1475.4,162.1 L1475.4,14.4 C1475.4,12.1 1473.6,10.3 1471.3,10.3 L123.7,10.3 L123.7,160 C123.7,162.8 121.4,165.1 118.6,165.1 L10.3,165.1 L10.3,165 Z" id="Shape" fill="#E5E5E5" fill-rule="nonzero" mask="url(#mask-2)"></path>
            </g>
            <path d="M1566.1,728.1 L153,728.1 C148.6,728.1 145,724.5 145,720.1 L145,575.1 L39.6,575.1 C35.2,575.1 31.6,571.5 31.6,567.1 L31.6,194.3 C31.6,189.9 35.2,186.3 39.6,186.3 L145,186.3 L145,39.6 C145,35.2 148.6,31.6 153,31.6 L1566.1,31.6 C1570.5,31.6 1574.1,35.2 1574.1,39.6 L1574.1,186.4 L1678.5,186.4 C1682.9,186.4 1686.5,190 1686.5,194.4 L1686.5,567.2 C1686.5,571.6 1682.9,575.2 1678.5,575.2 L1574.1,575.2 L1574.1,720.2 C1574.1,724.5 1570.5,728.1 1566.1,728.1 Z M39.6,194.3 L39.6,567.1 L153,567.1 L153,720.1 L1566.1,720.1 L1566.1,567.1 L1678.5,567.1 L1678.5,194.3 L1566.1,194.3 L1566.1,39.6 L153,39.6 L153,194.4 L39.6,194.4 L39.6,194.3 Z" id="Shape" fill="#C0BFBF" fill-rule="nonzero"></path>
            <g id="Clipped" transform="translate(31.000000, 31.000000)">
                <mask id="mask-4" fill="white">
                    <use xlink:href="#path-3"></use>
                </mask>
                <g id="SVGID_3_"></g>
                <path d="M1540.1,702.1 L127,702.1 C122.6,702.1 119,698.5 119,694.1 L119,549.2 C119,546.4 116.7,544.1 113.9,544.1 L13.5,549.1 C9.1,549.1 5.5,545.5 5.5,541.1 L5.5,163.5 C5.5,161.8 6.9,160.4 8.6,160.4 L119,160.4 L119,8.9 C119,7 120.5,5.5 122.4,5.5 L1540.1,5.5 C1544.5,5.5 1548.1,9.1 1548.1,13.5 L1548.1,155.6 C1548.1,158.2 1550.2,160.3 1552.8,160.3 L1652.5,160.3 C1656.9,160.3 1660.5,163.9 1660.5,168.3 L1660.5,541.1 C1660.5,545.5 1656.9,549.1 1652.5,549.1 L1548.1,549.1 L1548.1,694.1 C1548.1,698.5 1544.5,702.1 1540.1,702.1 Z M13.6,168.3 L13.6,536.1 C13.6,538.9 15.8,541.1 18.6,541.1 L127,541.1 L127,689.2 C127,691.9 129.2,694.1 131.9,694.1 L1535,694.1 C1537.8,694.1 1540.1,691.8 1540.1,689 L1540.1,541.1 L1647.4,541.1 C1650.2,541.1 1652.5,538.8 1652.5,536 L1652.5,173.5 C1652.5,170.6 1650.2,168.3 1647.3,168.3 L1540.1,168.3 L1540.1,13.7 C1540.1,10.9 1537.8,8.6 1535,8.6 L127.1,13.6 L127.1,168.4 L13.6,168.4 L13.6,168.3 Z" id="Shape" fill="#E5E5E5" fill-rule="nonzero" mask="url(#mask-4)"></path>
            </g>
            <path d="M1600.9,759 L118.2,759 C115.9,759 114.1,757.2 114.1,754.9 L114.1,611.1 C114.1,608.3 111.8,606 109,606 L4.8,606 C2.5,606 0.7,604.2 0.7,601.9 L0.7,159.5 C0.7,157.2 2.5,155.4 4.8,155.4 L114.1,155.4 L114.1,4.7 C114.1,2.4 115.9,0.6 118.2,0.6 L1600.9,0.6 C1603.2,0.6 1605,2.4 1605,4.7 L1605,149.9 C1605,152.9 1607.5,155.4 1610.5,155.4 L1713.3,155.4 C1715.6,155.4 1717.4,157.2 1717.4,159.5 L1717.4,601.9 C1717.4,604.2 1715.6,606 1713.3,606 L1608.7,606 C1606.7,606 1605.1,607.6 1605.1,609.6 L1605.1,754.8 C1605,757.1 1603.1,759 1600.9,759 Z M125.7,750.8 L1596.7,750.8 L1596.7,601.9 C1596.7,599.6 1598.5,597.8 1600.8,597.8 L1709.1,597.8 L1709.1,168.5 C1709.1,165.8 1706.9,163.6 1704.2,163.6 L1600.8,163.6 C1598.5,163.6 1596.7,161.8 1596.7,159.5 L1596.7,13.2 C1596.7,10.8 1594.8,8.8 1592.3,8.8 L126.3,8.8 C124.1,8.8 122.3,10.6 122.3,12.8 L122.3,159.4 C122.3,161.7 120.5,163.5 118.2,163.5 L14.6,163.5 C11.4,163.5 8.9,166.1 8.9,169.2 L8.9,592.7 C8.9,595.5 11.2,597.7 13.9,597.7 L118.2,597.7 C120.5,597.7 122.3,599.5 122.3,601.8 L122.3,747.2 C122.3,749.3 123.8,750.8 125.7,750.8 Z" id="Shape" fill="#67CDEC" fill-rule="nonzero"></path>
            <polygon id="Path" fill="#46C5E1" points="1653.7 200.3 1678.4 200.3 1678.4 194.3 1647.7 194.3 1566.1 194.3 1571.1 200.3"></polygon>
            <polygon id="Path" fill="#46C5E1" points="45.6 231 45.6 200.3 76.3 200.3 159 200.3 159 76.3 159 45.6 189.7 45.6 1541.3 45.6 1566.1 45.6 1566.1 39.6 1535.3 39.6 183.7 39.6 153 39.6 153 70.3 153 194.3 70.3 194.3 39.6 194.3 39.6 225 39.6 536.4 39.6 567.1 45.6 567.1 45.6 542.4"></polygon>
            <path d="M1717.3,161.4 L1717.3,159.5 C1717.3,157.2 1715.5,155.4 1713.2,155.4 L1604.9,149.9 L1606.4,157.4 C1607.7,159.8 1610.2,161.4 1612.9,161.4 L1717.3,161.4 Z" id="Path" fill="#46C5E1"></path>
            <path d="M10.8,161.4 L116.4,161.4 C118.4,161.4 120.1,159.7 120.1,157.7 L120.1,10.7 C120.1,8.4 121.9,6.6 124.2,6.6 L1605,6.6 L1605,4.7 C1605,2.4 1603.2,0.6 1600.9,0.6 L118.2,0.6 C115.9,0.6 114.1,2.4 114.1,4.7 L114.1,150.4 C114.1,153.2 111.9,155.4 109.1,155.4 L4.8,155.4 C2.5,155.4 0.7,157.2 0.7,159.5 L0.7,601.9 C0.7,604.2 2.5,606 4.8,606 L6.7,606 L6.7,165.5 C6.7,163.3 8.5,161.4 10.8,161.4 Z" id="Path" fill="#46C5E1"></path>
            <path d="M118.2,597.8 L8.9,592.8 L8.9,597.1 C8.9,600.8 11.9,603.8 15.6,603.8 L122.3,603.8 L122.3,601.9 C122.3,599.7 120.5,597.8 118.2,597.8 Z" id="Path" fill="#46C5E1"></path>
            <path d="M1602.8,752.9 L1602.8,607.9 C1602.8,605.6 1604.6,603.8 1606.9,603.8 L1709.9,603.8 C1712.8,603.8 1715.1,601.5 1715.1,598.6 L1715.1,169.6 C1715.1,163.6 1704.2,163.6 1704.2,163.6 L1709.1,169.6 L1709.1,592.7 C1709.1,595.5 1706.8,597.8 1704,597.8 L1600.9,597.8 C1598.6,597.8 1596.8,599.6 1596.8,601.9 L1596.8,747 C1596.8,749.1 1595.1,750.7 1593.1,750.7 L128.3,750.7 C128.3,754 131,756.7 134.3,756.7 L1598.9,756.7 C1601,756.8 1602.8,755.1 1602.8,752.9 Z" id="Path" stroke="#979797" fill="#46C5E1"></path>
        </g>
    </g>
</svg>