<svg xmlns="http://www.w3.org/2000/svg" viewBox="0 0 32 40" x="0px" y="0px"><title>a</title><g data-name="23 Control Setting"><path d="M29,0H3A3,3,0,0,0,0,3V29a3,3,0,0,0,3,3H29a3,3,0,0,0,3-3V3A3,3,0,0,0,29,0Zm1,29a1,1,0,0,1-1,1H3a1,1,0,0,1-1-1V3A1,1,0,0,1,3,2H29a1,1,0,0,1,1,1Z"/><path d="M16,22a3.5,3.5,0,1,0,3.5,3.5A3.5,3.5,0,0,0,16,22Zm0,5a1.5,1.5,0,1,1,1.5-1.5A1.5,1.5,0,0,1,16,27Z"/><path d="M25,22a3.5,3.5,0,1,0,3.5,3.5A3.5,3.5,0,0,0,25,22Zm0,5a1.5,1.5,0,1,1,1.5-1.5A1.5,1.5,0,0,1,25,27Z"/><path d="M7,22a3.5,3.5,0,1,0,3.5,3.5A3.5,3.5,0,0,0,7,22Zm0,5a1.5,1.5,0,1,1,1.5-1.5A1.5,1.5,0,0,1,7,27Z"/><path d="M9.5,12H8V5A1,1,0,0,0,6,5v7H4.5a1,1,0,0,0-1,1v3a1,1,0,0,0,1,1H6v2a1,1,0,0,0,2,0V17H9.5a1,1,0,0,0,1-1V13A1,1,0,0,0,9.5,12Zm-1,3h-3V14h3Z"/><path d="M18.5,6H17V5a1,1,0,0,0-2,0V6H13.5a1,1,0,0,0-1,1v3a1,1,0,0,0,1,1H15v8a1,1,0,0,0,2,0V11h1.5a1,1,0,0,0,1-1V7A1,1,0,0,0,18.5,6Zm-1,3h-3V8h3Z"/><path d="M27.5,9H26V5a1,1,0,0,0-2,0V9H22.5a1,1,0,0,0-1,1v3a1,1,0,0,0,1,1H24v5a1,1,0,0,0,2,0V14h1.5a1,1,0,0,0,1-1V10A1,1,0,0,0,27.5,9Zm-1,3h-3V11h3Z"/></g><text x="0" y="47" fill="#000000" font-size="5px" font-weight="bold" font-family="'Helvetica Neue', Helvetica, Arial-Unicode, Arial, Sans-serif">Created by Berkah Icon</text><text x="0" y="52" fill="#000000" font-size="5px" font-weight="bold" font-family="'Helvetica Neue', Helvetica, Arial-Unicode, Arial, Sans-serif">from the Noun Project</text></svg>