<?xml version="1.0" encoding="UTF-8"?>
<svg width="76px" height="77px" viewBox="0 0 76 77" version="1.1" xmlns="http://www.w3.org/2000/svg" xmlns:xlink="http://www.w3.org/1999/xlink">
    <!-- Generator: Sketch 52.6 (67491) - http://www.bohemiancoding.com/sketch -->
    <title>logo</title>
    <desc>Created with Sketch.</desc>
    <g id="logo" stroke="none" stroke-width="1" fill="none" fill-rule="evenodd">
        <g id="Group" fill="#45E7A0">
            <path d="M18.65,24.34 L15.71,28.11 L2.3,22.82 L5.24,19.05 L18.65,24.34 Z M13.63,8.29 L22.02,20.01 L19.29,23.5 L5.88,18.21 L8.82,14.44 L14.8,16.86 L15.45,16.02 L9.47,13.6 L13.63,8.29 Z" id="Shape" fill-rule="nonzero"></path>
            <polygon id="Path" points="32.79 14.68 28.43 16.66 26.38 12.15 25.41 12.59 27.46 17.1 23.11 19.09 17.38 6.51 21.73 4.52 23.79 9.04 24.76 8.6 22.7 4.08 27.06 2.1"></polygon>
            <polygon id="Path" points="43.71 14.9 33.97 14.54 34.49 0.73 44.23 1.09 44.08 4.98 39.65 4.82 39.62 5.88 44.04 6.05 43.9 9.94 39.47 9.78 39.43 10.84 43.86 11"></polygon>
            <polygon id="Path" points="53.55 19.71 44.91 15.2 51.31 2.94 59.95 7.46 58.14 10.91 54.22 8.86 53.72 9.8 57.65 11.86 55.84 15.31 51.92 13.26 51.43 14.2 55.35 16.25"></polygon>
            <polygon id="Path" points="60.39 28.3 54.47 20.55 65.45 12.15 68.68 16.38 60.8 22.41 63.49 25.93"></polygon>
            <g transform="translate(0.000000, 16.000000)">
                <path d="M4.31,29.13 C3.08,29.12 2.07,28.56 1.26,27.47 C0.52,26.47 0.16,25.33 0.18,24.06 C0.19,22.79 0.58,21.66 1.34,20.67 C2.17,19.6 3.2,19.07 4.42,19.08 L9.11,19.13 C10.34,19.14 11.35,19.7 12.16,20.79 C12.9,21.79 13.26,22.93 13.24,24.2 C13.23,25.47 12.84,26.6 12.08,27.59 C11.26,28.66 10.24,29.19 9,29.18 L7.16,29.16 L7.21,24.64 L9.05,24.66 C9.18,24.66 9.3,24.61 9.4,24.51 C9.5,24.41 9.55,24.29 9.55,24.16 C9.55,24.03 9.5,23.91 9.4,23.81 C9.3,23.71 9.18,23.66 9.05,23.65 L4.36,23.6 C4.23,23.6 4.11,23.65 4.01,23.75 C3.91,23.85 3.86,23.97 3.86,24.1 C3.86,24.23 3.91,24.35 4.01,24.45 C4.11,24.55 4.23,24.6 4.36,24.61 L6.2,24.63 L6.15,29.15 L4.31,29.13 Z" id="Path"></path>
                <polygon id="Path" points="6.05 43.9 4.09 39.82 8.32 37.79 7.88 36.88 3.65 38.91 1.69 34.84 13.48 29.18 15.43 33.26 11.21 35.29 11.64 36.19 15.87 34.16 17.83 38.24"></polygon>
                <path d="M18.96,56.27 L14.92,53 L17.3,47.39 L16.52,46.76 L14.13,52.37 L10.09,49.1 L18.31,38.94 L23.52,43.15 C24.39,43.85 24.89,44.79 25.01,45.97 C25.13,47.15 24.85,48.17 24.14,49.04 C23.67,49.62 23.07,50.04 22.33,50.3 C21.59,50.56 20.86,50.63 20.11,50.52 L18.96,56.27 Z" id="Path"></path>
                <rect id="Rectangle" transform="translate(26.951841, 52.305776) rotate(-69.310505) translate(-26.951841, -52.305776) " x="20.4169026" y="50.2107958" width="13.0698767" height="4.18996049"></rect>
                <path d="M41.18,57.37 C41.13,58.39 40.72,59.23 39.96,59.91 C39.2,60.59 38.32,60.9 37.3,60.85 L30.94,60.51 L31.14,56.83 L37.5,57.17 L37.55,56.17 L34.87,56.03 C33.85,55.98 33.01,55.57 32.33,54.81 C31.65,54.05 31.34,53.17 31.39,52.15 L31.44,51.15 C31.49,50.14 31.9,49.29 32.66,48.61 C33.42,47.93 34.3,47.62 35.32,47.67 L41.68,48.01 L41.48,51.69 L35.12,51.35 L35.07,52.35 L37.75,52.49 C38.76,52.54 39.61,52.95 40.29,53.71 C40.97,54.47 41.28,55.35 41.23,56.37 L41.18,57.37 Z" id="Path"></path>
                <polygon id="Path" points="51.96 48.23 49.6 49.08 52.76 57.91 48.82 59.33 45.65 50.49 43.29 51.34 42.04 47.87 50.72 44.76"></polygon>
                <path d="M54.89,41.13 L61.14,53.24 L57.87,56.37 L51.62,44.26 L54.89,41.13 Z M70.46,44.33 L65.86,48.73 L63.02,43.33 L62.29,44.02 L65.13,49.42 L61.86,52.55 L55.61,40.44 L58.64,37.55 L70.46,44.33 Z" id="Shape" fill-rule="nonzero"></path>
                <polygon id="Path" points="75.23 32.13 73.48 36.3 67.42 35.58 67.03 36.5 73.09 37.23 70.62 43.1 60.06 34.49 61.69 30.63"></polygon>
                <path d="M72.4,19.84 C73.41,19.9 74.26,20.3 74.94,21.06 C75.62,21.82 75.93,22.71 75.88,23.72 L75.53,30.08 L71.85,29.88 L72.2,23.52 L71.2,23.47 L71.05,26.15 C70.99,27.17 70.59,28.01 69.83,28.69 C69.07,29.37 68.18,29.68 67.17,29.63 L66.17,29.58 C65.16,29.52 64.31,29.12 63.63,28.36 C62.95,27.6 62.64,26.71 62.69,25.7 L63.04,19.34 L66.72,19.54 L66.37,25.9 L67.37,25.95 L67.52,23.27 C67.58,22.26 67.98,21.41 68.74,20.73 C69.5,20.05 70.39,19.74 71.4,19.79 L72.4,19.84 Z" id="Path"></path>
                <path d="M38.52,25.33 C38.52,26.49 38.01,27.45 36.99,28.21 C36.06,28.91 34.99,29.27 33.79,29.27 C32.59,29.27 31.53,28.92 30.59,28.21 C29.57,27.45 29.06,26.49 29.06,25.33 L29.06,23.12 C29.06,21.96 29.57,21 30.59,20.24 C31.52,19.54 32.59,19.18 33.79,19.18 C34.99,19.18 36.05,19.53 36.99,20.24 C38.01,21.01 38.52,21.97 38.52,23.12 L38.52,25.33 Z M34.27,25.33 L34.27,23.12 C34.27,22.99 34.22,22.88 34.13,22.79 C34.04,22.7 33.93,22.65 33.8,22.65 C33.67,22.65 33.56,22.7 33.47,22.79 C33.38,22.88 33.33,22.99 33.33,23.12 L33.33,25.33 C33.33,25.46 33.38,25.57 33.47,25.66 C33.56,25.75 33.67,25.8 33.8,25.8 C33.93,25.8 34.04,25.75 34.13,25.66 C34.22,25.57 34.27,25.46 34.27,25.33 Z" id="Shape" fill-rule="nonzero"></path>
                <path d="M46.97,24.86 L43.82,24.86 L43.82,29.27 L39.09,29.27 L39.09,21.67 C39.09,19.08 41.19,16.98 43.78,16.98 L46.97,16.98 L46.97,20.45 L44.29,20.45 C44.03,20.45 43.82,20.66 43.82,20.92 C43.82,21.18 44.03,21.39 44.29,21.39 L46.97,21.39 L46.97,24.86 Z" id="Path"></path>
                <path d="M60.41,22.98 C60.41,29.07 58.2,34.33 53.78,38.75 C49.36,43.17 44.1,45.39 38.01,45.39 C31.96,45.39 26.71,43.17 22.27,38.73 C17.83,34.29 15.61,29.04 15.61,22.99 C15.61,16.94 17.83,11.69 22.27,7.25 C26.71,2.81 31.96,0.59 38.01,0.59 C44.1,0.59 49.36,2.8 53.78,7.23 C58.2,11.66 60.41,16.89 60.41,22.98 Z M26.66,28.16 C25.95,26.55 25.56,24.88 25.5,23.16 L16.77,23.18 C16.81,26.14 17.46,29 18.69,31.74 L26.66,28.16 Z M29.07,14.22 L22.88,8.11 C20.8,10.23 19.23,12.69 18.17,15.48 L26.31,18.6 C26.95,16.93 27.88,15.47 29.07,14.22 Z M33.63,34.68 C31.96,34.03 30.5,33.1 29.25,31.91 L23.14,38.1 C25.26,40.18 27.72,41.75 30.51,42.81 L33.63,34.68 Z M37.83,10.47 L37.81,1.74 C34.85,1.78 31.99,2.43 29.25,3.66 L32.83,11.62 C34.43,10.91 36.1,10.53 37.83,10.47 Z M49.46,22.98 C49.46,20 48.3,17.35 45.97,15.02 C43.64,12.69 40.99,11.53 38.01,11.53 C35.03,11.53 32.38,12.69 30.05,15.02 C27.72,17.35 26.56,20 26.56,22.98 C26.56,25.96 27.72,28.61 30.05,30.94 C32.38,33.27 35.03,34.43 38.01,34.43 C40.99,34.43 43.64,33.27 45.97,30.94 C48.29,28.61 49.46,25.96 49.46,22.98 Z M46.77,42.29 L43.19,34.42 C41.64,35.13 39.97,35.49 38.19,35.49 L38.21,44.22 C41.17,44.17 44.02,43.53 46.77,42.29 Z M52.87,7.78 C50.75,5.7 48.29,4.13 45.5,3.07 L42.38,11.27 C44.05,11.93 45.51,12.85 46.76,14.04 L52.87,7.78 Z M57.91,30.48 L49.71,27.36 C49.05,29.03 48.13,30.49 46.94,31.74 L53.2,37.85 C55.28,35.72 56.85,33.26 57.91,30.48 Z M59.24,22.78 C59.2,19.86 58.55,17.01 57.32,14.22 L49.45,17.8 C50.16,19.35 50.52,21.02 50.52,22.8 L59.24,22.78 Z" id="Shape" fill-rule="nonzero"></path>
                <path d="M9.17,10.51 C7.63,11.58 7.31,9.06 7.31,9.06 C6.76,9.78 5.45,9.4 5.16,9.3 C6.12,10.35 8.72,12.34 9.96,13.26 C9.97,13.25 9.97,13.25 9.98,13.24 C10.14,13.14 10.33,13.1 10.52,13.12 C10.59,13.12 10.66,13.13 10.72,13.16 C10.85,12.06 10.39,11.51 10.39,11.51 C9.37,13.32 9.17,10.51 9.17,10.51 M9.27,15 C7.9,15.08 4.97,15.35 3.48,16.3 C4.95,16.3 5.35,17.39 5.35,17.39 C6.58,14.39 7.61,16.92 7.61,16.92 C8.98,13.94 9.06,16.54 9.06,16.54 C9.33,16.41 9.52,16.22 9.68,15.98 C9.56,15.91 9.45,15.81 9.37,15.69 C9.25,15.5 9.21,15.27 9.26,15.06 C9.26,15.04 9.27,15.02 9.27,15 M9.72,14.44 C9.5,14.1 9.55,13.67 9.8,13.39 C8.59,12.48 6.18,10.64 5.15,9.58 C5.89,10.72 5.32,11.59 5.32,11.59 C8.46,10.89 7.07,13.18 7.07,13.18 C8.56,12.91 8.92,13.1 8.88,13.38 C8.45,13.18 8.14,13.19 8.14,13.19 C9,15.13 6.65,13.58 6.65,13.58 C6.62,15.5 4.44,14.23 4.44,14.23 C4.66,15.02 3.87,15.76 3.52,16.05 C4.57,15.45 6.19,15.15 7.39,15 C8.17,14.9 8.87,14.85 9.34,14.83 C9.4,14.72 9.49,14.63 9.6,14.56 C9.65,14.53 9.69,14.51 9.75,14.49 C9.74,14.47 9.73,14.45 9.72,14.44" id="Shape" fill-rule="nonzero"></path>
                <path d="M10.55,14.74 C10.67,14.74 10.79,14.71 10.9,14.64 C11.08,14.53 11.19,14.34 11.21,14.14 C11.41,14.16 11.6,14.26 11.72,14.45 C11.92,14.76 11.83,15.16 11.53,15.35 C11.3,15.49 11.01,15.47 10.8,15.32 C10.81,15.18 10.78,15.04 10.7,14.91 C10.65,14.84 10.6,14.79 10.55,14.74" id="Path"></path>
                <path d="M9.7,14.7 C9.84,14.61 10.01,14.58 10.17,14.62 C10.05,14.56 9.95,14.48 9.87,14.36 C9.66,14.03 9.75,13.6 10.07,13.4 C10.39,13.2 10.81,13.3 11.02,13.63 C11.23,13.96 11.14,14.39 10.82,14.59 C10.67,14.69 10.49,14.71 10.32,14.68 C10.43,14.73 10.52,14.81 10.59,14.92 C10.79,15.23 10.7,15.63 10.4,15.82 C10.1,16.01 9.7,15.91 9.51,15.61 C9.32,15.29 9.4,14.89 9.7,14.7" id="Path"></path>
                <path d="M66.85,10.51 C66.85,10.51 66.65,13.32 65.63,11.5 C65.63,11.5 65.17,12.05 65.3,13.15 C65.37,13.13 65.44,13.12 65.5,13.11 C65.69,13.09 65.88,13.13 66.04,13.23 C66.05,13.23 66.05,13.24 66.06,13.25 C67.3,12.33 69.9,10.34 70.86,9.29 C70.57,9.39 69.26,9.77 68.71,9.05 C68.71,9.06 68.39,11.58 66.85,10.51 M66.74,15 C66.74,15.02 66.75,15.03 66.75,15.05 C66.8,15.27 66.76,15.49 66.64,15.68 C66.56,15.8 66.46,15.9 66.33,15.97 C66.49,16.21 66.67,16.4 66.95,16.53 C66.95,16.53 67.02,13.94 68.4,16.91 C68.4,16.91 69.43,14.38 70.66,17.38 C70.66,17.38 71.06,16.3 72.53,16.29 C71.04,15.36 68.11,15.08 66.74,15 M66.29,14.44 C66.28,14.45 66.27,14.47 66.26,14.48 C66.31,14.5 66.36,14.52 66.41,14.55 C66.52,14.62 66.6,14.71 66.67,14.82 C67.14,14.84 67.84,14.89 68.62,14.99 C69.82,15.14 71.44,15.45 72.49,16.04 C72.13,15.75 71.34,15.01 71.57,14.22 C71.57,14.22 69.39,15.49 69.36,13.57 C69.36,13.57 67.01,15.11 67.87,13.18 C67.87,13.18 67.56,13.18 67.13,13.37 C67.09,13.09 67.45,12.9 68.94,13.17 C68.94,13.17 67.56,10.88 70.69,11.58 C70.69,11.58 70.12,10.71 70.86,9.57 C69.83,10.64 67.43,12.48 66.21,13.38 C66.46,13.67 66.51,14.1 66.29,14.44" id="Shape" fill-rule="nonzero"></path>
                <path d="M65.47,14.74 C65.35,14.74 65.23,14.71 65.12,14.64 C64.94,14.53 64.83,14.34 64.81,14.14 C64.61,14.16 64.42,14.26 64.3,14.45 C64.1,14.76 64.19,15.16 64.49,15.35 C64.72,15.49 65.01,15.47 65.22,15.32 C65.21,15.18 65.24,15.04 65.32,14.91 C65.36,14.84 65.41,14.79 65.47,14.74" id="Path"></path>
                <path d="M66.31,14.7 C66.17,14.61 66,14.58 65.84,14.62 C65.96,14.56 66.06,14.48 66.14,14.36 C66.35,14.03 66.26,13.6 65.94,13.4 C65.62,13.2 65.2,13.3 64.99,13.63 C64.78,13.96 64.87,14.39 65.19,14.59 C65.34,14.69 65.52,14.71 65.69,14.68 C65.58,14.73 65.49,14.81 65.42,14.92 C65.22,15.23 65.31,15.63 65.61,15.82 C65.91,16.01 66.31,15.91 66.5,15.61 C66.69,15.29 66.61,14.89 66.31,14.7" id="Path"></path>
            </g>
        </g>
    </g>
</svg>